# xmcd
#
# Track frame offsets:
#	150
#	31035
#	42533
#	57573
#	72673
#	96448
#	112265
#	131475
#	153158
#	184185
#	199373
#	219434
#	234649
#
# Disc length: 3290
#
# Revision: 1
# Processed by: cddbd v1.5.1PL0 Copyright (c) Steve Scherf et al.
# Submitted via: EasyCDDAExtractor 4.6.9.1
# Normalized: r0:TRMNUM
#
DISCID=c80cd80d
DTITLE=Wilco - Being There Disc 2 and Bonus Tracks
DYEAR=1996
DGENRE=Country
TTITLE0=Sunken Tresure
TTITLE1=Someday Soon
TTITLE2=Outta Mind (Outta Sight)
TTITLE3=Someone Else's Song
TTITLE4=Kingpin
TTITLE5=(Was I) In Your Dreams
TTITLE6=Why Would You Wanna live
TTITLE7=The Lonely 1
TTITLE8=Dreamer In My Dreams
TTITLE9=Thirteen
TTITLE10=Blasting Fonda
TTITLE11=Monday (Demo)
TTITLE12=Outtasite (Outta Mind) (Live)
EXTD=
EXTT0=
EXTT1=
EXTT2=
EXTT3=
EXTT4=
EXTT5=
EXTT6=
EXTT7=
EXTT8=
EXTT9=
EXTT10=
EXTT11=
EXTT12=
PLAYORDER=
